<svg id="logo" xmlns="http://www.w3.org/2000/svg" xmlns:xlink="http://www.w3.org/1999/xlink" width="32" height="32" viewBox="0 0 32 32">
  <defs>
    <style>
      .cls-1 {
        fill: url(#linear-gradient);
      }

      .cls-2 {
        fill: url(#linear-gradient-2);
      }

      .cls-3 {
        fill-rule: evenodd;
        fill: url(#linear-gradient-3);
      }
    </style>
    <linearGradient id="linear-gradient" x1="25.238" y1="32" x2="6.762" gradientUnits="userSpaceOnUse">
      <stop offset="-0.1" stop-color="#1dc9ff"/>
      <stop offset="0.009" stop-color="#1dc9ff"/>
      <stop offset="0.302" stop-color="#6d6af4"/>
      <stop offset="0.602" stop-color="#d755ba"/>
      <stop offset="0.879" stop-color="#ff5c52"/>
      <stop offset="1.1" stop-color="#ff5c52"/>
    </linearGradient>
    <linearGradient id="linear-gradient-2" x1="16" y1="30.469" x2="16" y2="1.531" gradientUnits="userSpaceOnUse">
      <stop offset="0" stop-color="#ededed"/>
      <stop offset="1" stop-color="#fff"/>
    </linearGradient>
    <linearGradient id="linear-gradient-3" x1="501.153" y1="39.25" x2="488.379" y2="17.125" gradientUnits="userSpaceOnUse">
      <stop offset="0" stop-color="#1dc9ff"/>
      <stop offset="0.091" stop-color="#1dc9ff"/>
      <stop offset="0.335" stop-color="#6d6af4"/>
      <stop offset="0.585" stop-color="#d755ba"/>
      <stop offset="0.816" stop-color="#ff5c52"/>
      <stop offset="1" stop-color="#ff5c52"/>
    </linearGradient>
  </defs>
  <circle id="ring" class="cls-1" cx="16" cy="16" r="16"/>
  <circle id="white" class="cls-2" cx="16" cy="16" r="14.469"/>
  <path id="thinner" class="cls-3" d="M502.118,26.243h-0.844v0.323a2.235,2.235,0,0,1-.613,1.507h0L497.1,31.656a1.882,1.882,0,0,0-.436,1.09h0v2.4a2.11,2.11,0,1,1-1.336,0V20.969h-1.226a0.209,0.209,0,0,1-.189-0.309l1.894-3.433a0.217,0.217,0,0,1,.378,0l1.894,3.433a0.21,0.21,0,0,1-.189.309h-1.226V30.16l3.069-3.092a0.812,0.812,0,0,0,.2-0.5V26.243h-0.915a0.211,0.211,0,0,1-.211-0.211V22.937a0.211,0.211,0,0,1,.211-0.211h3.095a0.211,0.211,0,0,1,.21.211v3.094A0.21,0.21,0,0,1,502.118,26.243Zm-7.911-2.959V25a0.2,0.2,0,0,1-.17.2,11.756,11.756,0,0,0-5.31,2.324,0.2,0.2,0,0,1-.269-0.017L487.237,26.3a0.2,0.2,0,0,1,.016-0.306,13.9,13.9,0,0,1,6.72-2.912A0.2,0.2,0,0,1,494.207,23.283Zm-0.244,3.728a0.2,0.2,0,0,1,.244.2v1.745a0.2,0.2,0,0,1-.153.2,7.835,7.835,0,0,0-2.547,1.153,0.205,0.205,0,0,1-.261-0.023l-1.23-1.221a0.2,0.2,0,0,1,.023-0.309A9.967,9.967,0,0,1,493.963,27.011Zm-0.028,4.046a0.2,0.2,0,0,1,.272.192v1.5a0.211,0.211,0,0,1-.36.15l-1.023-1.017a0.2,0.2,0,0,1,.04-0.32A6.055,6.055,0,0,1,493.935,31.057Z" transform="translate(-480 -12)"/>
</svg>
