<svg xmlns="http://www.w3.org/2000/svg" xmlns:xlink="http://www.w3.org/1999/xlink" width="32" height="32" viewBox="0 0 32 32"><defs><linearGradient id="b" x1="50%" x2="50%" y1="100%" y2=".937%"><stop offset="0%" stop-color="#F2F2F2"/><stop offset="100%" stop-color="#F0F0F0"/></linearGradient><linearGradient id="f" x1="73.483%" x2="32.971%" y1="90.853%" y2="-1.505%"><stop offset="0%" stop-color="#E6F9FF"/><stop offset="27.808%" stop-color="#F5FDFF"/><stop offset="44.337%" stop-color="#CBC2FF"/><stop offset="59.8%" stop-color="#DE87DD"/><stop offset="80.4%" stop-color="#D69190"/><stop offset="100%" stop-color="#D69B99"/></linearGradient><linearGradient id="g" x1="12.814%" x2=".93%" y1="59.171%" y2="62.38%"><stop offset="0%" stop-color="#FFF" stop-opacity="0"/><stop offset="100%" stop-color="#F3CEF3" stop-opacity=".973"/></linearGradient><linearGradient id="h" x1="30.786%" x2="17.569%" y1="68.499%" y2="87.711%"><stop offset="0%" stop-color="#FFF" stop-opacity="0"/><stop offset="100%" stop-color="#FFF" stop-opacity=".973"/></linearGradient><linearGradient id="l" x1="78.868%" x2="21.132%" y1="100%" y2="0%"><stop offset="0%" stop-color="#00CDFF"/><stop offset="7%" stop-color="#00CDFF"/><stop offset="32.2%" stop-color="#8E75FF"/><stop offset="59.8%" stop-color="#DE3ED2"/><stop offset="80.4%" stop-color="#FF4B48"/><stop offset="100%" stop-color="#FF4B48"/></linearGradient><filter id="c" width="103.1%" height="103.1%" x="-1.6%" y="-1.6%" filterUnits="objectBoundingBox"><feGaussianBlur in="SourceAlpha" result="shadowBlurInner1" stdDeviation=".5"/><feOffset in="shadowBlurInner1" result="shadowOffsetInner1"/><feComposite in="shadowOffsetInner1" in2="SourceAlpha" k2="-1" k3="1" operator="arithmetic" result="shadowInnerInner1"/><feColorMatrix in="shadowInnerInner1" result="shadowMatrixInner1" values="0 0 0 0 0 0 0 0 0 0 0 0 0 0 0 0 0 0 0.07 0"/><feGaussianBlur in="SourceAlpha" result="shadowBlurInner2" stdDeviation=".5"/><feOffset in="shadowBlurInner2" result="shadowOffsetInner2"/><feComposite in="shadowOffsetInner2" in2="SourceAlpha" k2="-1" k3="1" operator="arithmetic" result="shadowInnerInner2"/><feColorMatrix in="shadowInnerInner2" result="shadowMatrixInner2" values="0 0 0 0 1 0 0 0 0 1 0 0 0 0 1 0 0 0 0.5 0"/><feMerge><feMergeNode in="shadowMatrixInner1"/><feMergeNode in="shadowMatrixInner2"/></feMerge></filter><filter id="e" width="110.7%" height="110.7%" x="-5.4%" y="-5.4%" filterUnits="objectBoundingBox"><feOffset in="SourceAlpha" result="shadowOffsetOuter1"/><feGaussianBlur in="shadowOffsetOuter1" result="shadowBlurOuter1" stdDeviation=".5"/><feColorMatrix in="shadowBlurOuter1" values="0 0 0 0 1 0 0 0 0 1 0 0 0 0 1 0 0 0 1 0"/></filter><filter id="j" width="110.7%" height="110.7%" x="-5.4%" y="-5.4%" filterUnits="objectBoundingBox"><feGaussianBlur in="SourceAlpha" result="shadowBlurInner1" stdDeviation=".5"/><feOffset in="shadowBlurInner1" result="shadowOffsetInner1"/><feComposite in="shadowOffsetInner1" in2="SourceAlpha" k2="-1" k3="1" operator="arithmetic" result="shadowInnerInner1"/><feColorMatrix in="shadowInnerInner1" values="0 0 0 0 1 0 0 0 0 1 0 0 0 0 1 0 0 0 0.3 0"/></filter><filter id="m" width="103.8%" height="103.8%" x="-1.9%" y="-1.9%" filterUnits="objectBoundingBox"><feGaussianBlur in="SourceAlpha" result="shadowBlurInner1" stdDeviation=".5"/><feOffset in="shadowBlurInner1" result="shadowOffsetInner1"/><feComposite in="shadowOffsetInner1" in2="SourceAlpha" k2="-1" k3="1" operator="arithmetic" result="shadowInnerInner1"/><feColorMatrix in="shadowInnerInner1" result="shadowMatrixInner1" values="0 0 0 0 0 0 0 0 0 0 0 0 0 0 0 0 0 0 0.1 0"/><feGaussianBlur in="SourceAlpha" result="shadowBlurInner2" stdDeviation=".5"/><feOffset in="shadowBlurInner2" result="shadowOffsetInner2"/><feComposite in="shadowOffsetInner2" in2="SourceAlpha" k2="-1" k3="1" operator="arithmetic" result="shadowInnerInner2"/><feColorMatrix in="shadowInnerInner2" result="shadowMatrixInner2" values="0 0 0 0 1 0 0 0 0 1 0 0 0 0 1 0 0 0 0.2 0"/><feGaussianBlur in="SourceAlpha" result="shadowBlurInner3" stdDeviation=".5"/><feOffset in="shadowBlurInner3" result="shadowOffsetInner3"/><feComposite in="shadowOffsetInner3" in2="SourceAlpha" k2="-1" k3="1" operator="arithmetic" result="shadowInnerInner3"/><feColorMatrix in="shadowInnerInner3" result="shadowMatrixInner3" values="0 0 0 0 1 0 0 0 0 1 0 0 0 0 1 0 0 0 0.15 0"/><feMerge><feMergeNode in="shadowMatrixInner1"/><feMergeNode in="shadowMatrixInner2"/><feMergeNode in="shadowMatrixInner3"/></feMerge></filter><filter id="o" width="121.4%" height="115%" x="-10.7%" y="-7.5%" filterUnits="objectBoundingBox"><feOffset in="SourceAlpha" result="shadowOffsetOuter1"/><feGaussianBlur in="shadowOffsetOuter1" result="shadowBlurOuter1" stdDeviation=".5"/><feComposite in="shadowBlurOuter1" in2="SourceAlpha" operator="out" result="shadowBlurOuter1"/><feColorMatrix in="shadowBlurOuter1" values="0 0 0 0 0.0304407321 0 0 0 0 0 0 0 0 0 0.211616848 0 0 0 0.35 0"/></filter><circle id="d" cx="16" cy="16" r="14"/><circle id="k" cx="16" cy="16" r="13"/><path id="a" d="M8.94623597,0.000513442773 L22.8397111,0 C26.0249431,0 27.1799852,0.331648785 28.3444584,0.954415874 C29.5089316,1.57718296 30.422817,2.49106835 31.0455841,3.65554156 L31.1286987,3.81446646 C31.6978159,4.92921321 32,6.11984014 32,9.16028887 L32,22.8397111 L31.9979481,23.2616687 C31.9692486,26.1299664 31.6400436,27.2329158 31.0455841,28.3444584 C30.422817,29.5089316 29.5089316,30.422817 28.3444584,31.0455841 L28.1855335,31.1286987 C27.0707868,31.6978159 25.8801599,32 22.8397111,32 L9.16028887,32 L8.73833132,31.9979481 C5.87003355,31.9692486 4.76708417,31.6400436 3.65554156,31.0455841 C2.49106835,30.422817 1.57718296,29.5089316 0.954415874,28.3444584 L0.871301348,28.1855335 C0.302184121,27.0707868 0,25.8801599 0,22.8397111 L0,9.16028887 C0,5.97505687 0.331648785,4.82001478 0.954415874,3.65554156 C1.57718296,2.49106835 2.49106835,1.57718296 3.65554156,0.954415874 L3.81446646,0.871301348 C4.90267162,0.315734531 6.06318664,0.0145410427 8.94623597,0.000513442773 L8.94623597,0.000513442773 Z"/><path id="n" d="M20.8753254,14.2428869 L20.8753254,14.5350435 C20.8753254,15.3079843 20.3889264,15.8176991 20.3094095,15.8957693 L17.0229396,19.1320726 C16.9707078,19.1926434 16.6200998,19.618163 16.6200998,20.1165313 L16.6198688,22.2877371 C17.5263199,22.5836589 18.0795527,23.4784214 17.9262063,24.4005219 C17.7728599,25.3226224 16.9581784,26 16.0025152,26 C15.0468521,26 14.2321706,25.3226224 14.0788242,24.4005219 C13.9254778,23.4784214 14.4787106,22.5836589 15.3851616,22.2877371 L15.3851616,9.4794716 L14.252608,9.4794716 C14.1836408,9.48087545 14.1191014,9.44636264 14.0831133,9.38883335 C14.0471253,9.33130406 14.0451056,9.25941789 14.0778093,9.2000444 L15.8277887,6.09964437 C15.8634768,6.03806249 15.9302856,6 16.0026885,6 C16.0750914,6 16.1419002,6.03806249 16.1775883,6.09964437 L17.9276543,9.2000444 C17.9603472,9.25943312 17.9583102,9.3313276 17.9223047,9.38885631 C17.8862991,9.44638502 17.8217445,9.48088888 17.7527689,9.4794716 L16.6198688,9.4794716 L16.6198688,17.7806328 L19.4558582,14.9878285 C19.4702948,14.972333 19.641109,14.7831692 19.641109,14.5350435 L19.641109,14.2428869 L18.7962774,14.2428869 C18.7445602,14.2429093 18.6949525,14.2228456 18.6583694,14.1871104 C18.6217862,14.1513751 18.601225,14.1028961 18.6012097,14.0523401 L18.6012097,11.2576447 C18.6012416,11.1523995 18.6885282,11.0670979 18.7961908,11.0670979 L21.6551344,11.0670979 C21.7068259,11.0670979 21.7563995,11.0871751 21.7929456,11.1229112 C21.8294916,11.1586473 21.85,11.2071137 21.85,11.2576447 L21.85,14.0524812 C21.85,14.1576466 21.7627153,14.2428713 21.6551344,14.2428869 L20.8753254,14.2428869 Z M14.3465043,13.1224685 C14.3467083,13.2126824 14.2801686,13.2898204 14.1891735,13.3048582 C12.4000904,13.5932686 10.7132855,14.31477 9.28248059,15.4036105 C9.2074633,15.4602551 9.10108997,15.4536578 9.03399731,15.3881997 L7.9059768,14.2930709 C7.86766531,14.2558646 7.84740096,14.2044542 7.85026769,14.1517375 C7.85313441,14.0990208 7.87886018,14.0500003 7.9209909,14.0169742 C9.71287753,12.6132877 11.8570268,11.704985 14.1300699,11.3866893 C14.1844509,11.379064 14.2395409,11.3948812 14.2810664,11.4300427 C14.3225918,11.4652043 14.3465043,11.5162499 14.3465043,11.569954 L14.3465043,13.1224685 Z M14.2774126,14.9750445 C14.3211973,15.0101291 14.3465588,15.0625739 14.3465042,15.1179174 L14.3465042,16.6940561 C14.3466742,16.7782974 14.2882387,16.8518682 14.2047073,16.8725791 C13.3627037,17.0791509 12.565548,17.432015 11.8512768,17.9143345 C11.7762907,17.9648954 11.6750838,17.9559963 11.6105315,17.8931658 L10.4741378,16.7899364 C10.4350583,16.7519949 10.4148664,16.699269 10.4188506,16.6455682 C10.4228347,16.5918674 10.4505979,16.5425414 10.4948688,16.5105092 C11.5722426,15.7348927 12.8094565,15.1978937 14.1205417,14.936826 C14.1760449,14.9259412 14.2336279,14.9399599 14.2774126,14.9750445 Z M14.2664254,18.6135877 C14.3165261,18.648033 14.3463627,18.7041432 14.3464172,18.764019 L14.3464172,20.1180272 C14.3464172,20.3150093 14.115691,20.3533388 14.0136529,20.2535071 L13.0681114,19.3356311 C13.0268391,19.2953383 13.0069576,19.2386467 13.0142599,19.1820753 C13.0215622,19.1255039 13.0552269,19.0754173 13.1054445,19.0464098 C13.4191772,18.8633554 13.7504902,18.7107678 14.0946424,18.5908306 C14.1522181,18.5706646 14.2163246,18.5791423 14.2664254,18.6135877 Z"/><radialGradient id="i" cx="50%" cy="10.143%" r="9.548%" fx="50%" fy="10.143%" gradientTransform="matrix(0 -1 2.6895 0 .227 .601)"><stop offset="0%" stop-color="#CE8987"/><stop offset="100%" stop-color="#863736" stop-opacity="0"/></radialGradient></defs><g fill="none" fill-rule="evenodd"><g fill-rule="nonzero"><use xlink:href="#a" fill="url(#b)"/><use xlink:href="#a" fill="#000" filter="url(#c)"/></g><g fill-rule="nonzero"><use xlink:href="#d" fill="#000" filter="url(#e)"/><use xlink:href="#d" fill="url(#f)"/><use xlink:href="#d" fill="url(#g)"/><use xlink:href="#d" fill="url(#h)"/><use xlink:href="#d" fill="url(#i)"/><use xlink:href="#d" fill="#000" filter="url(#j)"/></g><g fill-rule="nonzero"><use xlink:href="#k" fill="url(#l)"/><use xlink:href="#k" fill="#000" filter="url(#m)"/></g><use xlink:href="#n" fill="#000" filter="url(#o)"/><use xlink:href="#n" fill="#FFF" fill-opacity=".9"/></g></svg>